<svg width="20" height="20" viewBox="0 0 20 20" fill="none" xmlns="http://www.w3.org/2000/svg">
<mask id="mask0_61_130" style="mask-type:alpha" maskUnits="userSpaceOnUse" x="0" y="0" width="20" height="20">
<rect width="20" height="20" fill="#D9D9D9"/>
</mask>
<g mask="url(#mask0_61_130)">
<path d="M9.99595 12.75C9.89595 12.75 9.8022 12.7327 9.7147 12.6979C9.6272 12.6632 9.54873 12.6111 9.47928 12.5417L5.52803 8.59044C5.37053 8.43294 5.29525 8.25349 5.3022 8.0521C5.30914 7.85071 5.389 7.67363 5.54178 7.52085C5.69456 7.36808 5.87164 7.29169 6.07303 7.29169C6.27442 7.29169 6.4515 7.36808 6.60428 7.52085L10.0001 10.9375L13.4168 7.52085C13.5696 7.36808 13.7466 7.29516 13.948 7.3021C14.1494 7.30905 14.3265 7.38891 14.4793 7.54169C14.6321 7.69446 14.7084 7.87155 14.7084 8.07294C14.7084 8.27433 14.6297 8.45335 14.4722 8.61002L10.5209 12.5417C10.4459 12.6111 10.3647 12.6632 10.2772 12.6979C10.1897 12.7327 10.0959 12.75 9.99595 12.75Z" fill="white"/>
</g>
</svg>
