<svg width="175" height="40" viewBox="0 0 175 40" fill="none" xmlns="http://www.w3.org/2000/svg">
<path d="M9.00671 17.5589H19.8611C19.9841 17.419 20.1023 17.284 20.2301 17.1465C20.6691 16.2472 21.1081 15.3478 21.5712 14.4652C21.9043 13.8213 22.2773 13.1988 22.688 12.6013H8.16248L9.89917 9.38717L12.1955 5.13375H28.8244L31.3619 0.000244141H9.65314L7.28931 4.30188L4.66014 9.08335L0 17.5589H9.0043H9.00671Z" fill="white"/>
<path d="M56.3648 31.2086L54.3531 34.8665H42.1865H39.6394L37.0078 40H41.8971H56.8906L62.2961 30.167H56.9364L56.3648 31.2086Z" fill="white"/>
<path d="M44.1797 10.9687C44.1797 12.1743 45.0504 13.1605 46.1238 13.1605C47.1972 13.1605 48.0704 12.1792 48.0704 10.9687C48.0704 9.75828 47.1996 8.7793 46.1238 8.7793C45.048 8.7793 44.1797 9.76069 44.1797 10.9687Z" fill="white"/>
<path d="M44.645 15.8369L31.3617 21.1874H36.3426L33.2744 26.7695L30.5946 31.645L28.8242 34.8664H12.1929L6.14577 23.8639H0.786133L9.65535 39.9975H31.3617L33.2744 36.5181L35.9543 31.645L41.7022 21.1874L44.645 15.8369Z" fill="white"/>
<path d="M26.0743 16.5725L20.0127 27.6014H25.5339L37.7246 5.13353H52.4166L54.9493 0H38.412H35.1871L31.7523 6.24752L30.5945 8.35494L26.0743 16.5725Z" fill="white"/>
<path d="M67.8872 19.9987L59.8381 5.36011L57.2113 0.578613L54.6232 5.62534L48.3831 17.8045L42.9463 28.4091L47.9562 28.5465L57.2523 10.4068L61.3191 17.8045L62.5276 19.9987H58.4632H55.9136L53.2845 25.1322H53.598H58.1738H65.2556L65.3063 25.0334L67.8872 19.9987Z" fill="white"/>
<path d="M97.3901 18.8921C97.3901 17.9581 97.0613 17.242 96.4036 16.7437C95.7459 16.2453 94.5592 15.7181 92.8434 15.1619C91.4425 14.7362 90.0816 14.1883 88.7766 13.5247C86.0429 12.0538 84.6809 10.0726 84.6905 7.58097C84.6734 6.33759 85.0574 5.12176 85.7856 4.11361C86.5878 3.04295 87.6741 2.21847 88.9213 1.73372C90.3856 1.14475 91.9527 0.85373 93.5308 0.87772C95.1081 0.84937 96.6725 1.1671 98.1138 1.80848C99.383 2.36885 100.466 3.2798 101.235 4.43429C101.981 5.58121 102.368 6.92438 102.347 8.29227H97.3901C97.3901 7.19436 97.0444 6.34078 96.3529 5.73154C95.6615 5.1223 94.6918 4.81448 93.444 4.80805C92.2363 4.80805 91.2972 5.06365 90.6267 5.57483C90.308 5.80386 90.05 6.10716 89.8751 6.45844C89.7003 6.80972 89.6138 7.19837 89.6232 7.59062C89.6232 8.37186 90.0156 9.02531 90.8003 9.55096C91.5851 10.0766 92.7413 10.5709 94.2689 11.0338C97.0798 11.8778 99.1276 12.9226 100.412 14.1685C101.042 14.7713 101.538 15.4987 101.87 16.3041C102.203 17.1095 102.363 17.9753 102.342 18.8463C102.342 20.9199 101.557 22.5475 99.9855 23.729C98.4145 24.9105 96.3007 25.5005 93.6442 25.4989C91.911 25.5215 90.1928 25.1763 88.6029 24.4861C87.2081 23.9076 86.0062 22.9452 85.1368 21.7108C84.3309 20.5031 83.9142 19.0777 83.9428 17.6262H88.8996C88.8996 20.2737 90.4811 21.5967 93.6442 21.5951C94.8197 21.5951 95.7371 21.3539 96.3964 20.8717C96.7132 20.65 96.9699 20.3529 97.1434 20.0074C97.3169 19.6618 97.4017 19.2786 97.3901 18.8921Z" fill="white"/>
<path d="M130.487 5.20827H123.14V25.1829H118.197V5.20827H110.961V1.20801H130.499L130.487 5.20827Z" fill="white"/>
<path d="M145.304 25.1829H140.361V1.20801H145.304V25.1829Z" fill="white"/>
<path d="M161.573 16.7363V25.1756H156.631V1.2007H165.987C167.626 1.16579 169.25 1.50298 170.739 2.18689C172.045 2.79185 173.142 3.76917 173.894 4.99599C174.641 6.24637 175.023 7.68015 174.999 9.13606C174.999 11.4878 174.195 13.3364 172.587 14.6819C170.979 16.0274 168.752 16.7057 165.908 16.717L161.573 16.7363ZM161.573 12.7336H165.987C167.295 12.7336 168.291 12.4266 168.976 11.8126C169.661 11.1985 170.004 10.32 170.006 9.17706C170.006 8.00359 169.66 7.05358 168.969 6.32699C168.277 5.60041 167.322 5.22747 166.103 5.20818H161.573V12.7336Z" fill="white"/>
<path d="M97.4968 37.3452C97.5025 37.2349 97.4814 37.1248 97.4352 37.0244C97.389 36.924 97.3191 36.8364 97.2315 36.769C96.9332 36.5801 96.6078 36.4378 96.2666 36.347C95.891 36.2321 95.5262 36.0844 95.1764 35.9057C94.4463 35.5119 94.0813 34.9814 94.0813 34.3143C94.0761 33.9804 94.1793 33.6538 94.3756 33.3836C94.5909 33.0967 94.8826 32.8761 95.2174 32.747C95.6099 32.5899 96.0296 32.512 96.4524 32.518C96.8735 32.5075 97.2919 32.5899 97.6777 32.7591C98.0184 32.9089 98.3088 33.1532 98.5147 33.4632C98.7152 33.7696 98.8193 34.129 98.8138 34.4952H97.4895C97.4968 34.3674 97.4754 34.2397 97.427 34.1212C97.3786 34.0028 97.3044 33.8966 97.2097 33.8104C96.9883 33.6356 96.7097 33.5496 96.4282 33.5693C96.1617 33.5538 95.8975 33.6258 95.6757 33.7742C95.5899 33.8358 95.5204 33.9175 95.4733 34.012C95.4262 34.1066 95.403 34.2112 95.4055 34.3167C95.4085 34.4238 95.4391 34.5283 95.4945 34.62C95.5499 34.7117 95.6281 34.7875 95.7215 34.84C96.01 35.0171 96.3229 35.1511 96.6501 35.2378C97.2573 35.3876 97.8213 35.6766 98.2976 36.0818C98.4657 36.2437 98.5983 36.4388 98.6872 36.6546C98.776 36.8704 98.8191 37.1023 98.8138 37.3356C98.8238 37.5886 98.7713 37.8401 98.6611 38.068C98.5509 38.2959 98.3863 38.4932 98.1818 38.6425C97.6831 38.985 97.0857 39.1544 96.4813 39.1247C96.0168 39.1312 95.5562 39.0383 95.1305 38.8523C94.757 38.6974 94.435 38.4399 94.2019 38.1096C93.987 37.7854 93.8752 37.4038 93.8811 37.0149H95.2198C95.2198 37.7238 95.6435 38.0783 96.491 38.0783C96.7509 38.094 97.0092 38.0273 97.2291 37.8878C97.3155 37.8269 97.3853 37.7454 97.4321 37.6506C97.4789 37.5559 97.5011 37.4508 97.4968 37.3452Z" fill="white"/>
<path d="M102.696 34.7773C102.847 34.5842 103.041 34.4286 103.262 34.3228C103.484 34.217 103.727 34.1637 103.972 34.1672C105.006 34.1672 105.531 34.7692 105.547 35.9732V39.0307H104.271V36.0094C104.289 35.7921 104.227 35.5756 104.095 35.4018C104.016 35.3298 103.923 35.2752 103.821 35.2416C103.72 35.2079 103.613 35.196 103.506 35.2064C103.344 35.1946 103.182 35.2289 103.039 35.3053C102.895 35.3816 102.776 35.497 102.696 35.6381V39.0307H101.42V32.2527H102.696V34.7773Z" fill="white"/>
<path d="M111.081 39.0309C111.017 38.8962 110.973 38.7522 110.954 38.6041C110.803 38.7736 110.617 38.9078 110.408 38.997C110.2 39.0862 109.974 39.1283 109.748 39.1201C109.322 39.1351 108.907 38.9906 108.583 38.715C108.435 38.5889 108.317 38.4315 108.237 38.2543C108.157 38.0771 108.118 37.8845 108.122 37.6902C108.111 37.4646 108.156 37.2398 108.254 37.0363C108.352 36.8328 108.5 36.6573 108.684 36.5256C109.06 36.2532 109.603 36.1181 110.312 36.1157H110.898V35.8408C110.908 35.6494 110.848 35.4609 110.729 35.3103C110.66 35.2398 110.576 35.1854 110.484 35.1512C110.391 35.117 110.292 35.1038 110.194 35.1126C110.012 35.1015 109.832 35.1562 109.687 35.2669C109.626 35.3189 109.578 35.3842 109.546 35.4578C109.514 35.5314 109.5 35.6113 109.504 35.6913H108.228C108.228 35.414 108.317 35.1441 108.484 34.9221C108.67 34.6753 108.92 34.4843 109.207 34.37C109.54 34.231 109.898 34.1621 110.259 34.1674C110.764 34.1409 111.262 34.2985 111.66 34.6111C111.835 34.7666 111.972 34.9594 112.062 35.1752C112.152 35.391 112.192 35.6243 112.179 35.8577V37.9289C112.162 38.2815 112.227 38.6332 112.369 38.9561V39.0309H111.081ZM110.027 38.1436C110.209 38.1455 110.388 38.1024 110.548 38.0182C110.698 37.9453 110.821 37.8272 110.901 37.6806V36.8608H110.418C109.775 36.8608 109.435 37.081 109.398 37.5215V37.5986C109.396 37.6721 109.41 37.7452 109.439 37.8127C109.468 37.8802 109.512 37.9405 109.567 37.9892C109.694 38.0988 109.86 38.1542 110.027 38.1436Z" fill="white"/>
<path d="M117.651 35.4525C117.499 35.43 117.346 35.4179 117.192 35.4163C116.71 35.4163 116.392 35.5803 116.242 35.8985V39.0332H114.967V34.2589H116.172L116.206 34.828C116.305 34.6297 116.457 34.463 116.645 34.3467C116.833 34.2304 117.051 34.1691 117.272 34.1697C117.406 34.1688 117.539 34.1883 117.667 34.2276L117.651 35.4525Z" fill="white"/>
<path d="M122.276 39.12C121.962 39.1329 121.649 39.0825 121.355 38.9719C121.062 38.8613 120.793 38.6927 120.566 38.4762C120.343 38.2514 120.169 37.9827 120.055 37.6872C119.941 37.3917 119.89 37.0757 119.905 36.7594V36.6364C119.897 36.1916 119.992 35.751 120.182 35.3488C120.353 34.9863 120.627 34.6825 120.971 34.476C121.323 34.2676 121.725 34.1607 122.134 34.1673C122.42 34.1528 122.707 34.2007 122.974 34.3077C123.24 34.4147 123.48 34.5782 123.677 34.787C124.051 35.1969 124.239 35.7828 124.239 36.5376V37.0584H121.198C121.226 37.3457 121.359 37.6125 121.572 37.8083C121.788 38.0008 122.071 38.102 122.36 38.0904C122.581 38.1008 122.801 38.0578 123.001 37.965C123.201 37.8722 123.376 37.7324 123.511 37.5575L124.138 38.2592C123.94 38.5353 123.672 38.7541 123.361 38.8933C123.021 39.0478 122.65 39.1252 122.276 39.12ZM122.129 35.1969C122.014 35.1924 121.899 35.213 121.793 35.2571C121.687 35.3012 121.592 35.3679 121.514 35.4525C121.341 35.6621 121.235 35.9195 121.212 36.1904H122.985V36.0867C122.992 35.8445 122.905 35.6091 122.744 35.4284C122.663 35.3483 122.567 35.2858 122.461 35.2447C122.355 35.2036 122.242 35.1849 122.129 35.1897V35.1969Z" fill="white"/>
<path d="M135.502 33.6777H133.533V39.0307H132.197V33.6777H130.253V32.6047H135.502V33.6777Z" fill="white"/>
<path d="M139.213 34.7773C139.365 34.5846 139.559 34.4293 139.78 34.3235C140.001 34.2178 140.244 34.1643 140.489 34.1672C141.526 34.1672 142.052 34.7692 142.067 35.9732V39.0307H140.791V36.0094C140.809 35.7921 140.746 35.5756 140.614 35.4018C140.536 35.3298 140.442 35.2752 140.341 35.2416C140.24 35.2079 140.132 35.196 140.026 35.2064C139.864 35.195 139.701 35.2294 139.558 35.3058C139.414 35.3821 139.294 35.4972 139.213 35.6381V39.0307H137.939V32.2527H139.213V34.7773Z" fill="white"/>
<path d="M147.036 39.1199C146.722 39.1325 146.409 39.082 146.115 38.9714C145.822 38.8608 145.553 38.6924 145.326 38.4761C145.102 38.2513 144.928 37.9826 144.815 37.6871C144.701 37.3915 144.65 37.0756 144.665 36.7593V36.6363C144.658 36.1913 144.753 35.7507 144.944 35.3487C145.114 34.9858 145.387 34.6818 145.731 34.4758C146.082 34.2674 146.485 34.1606 146.893 34.1672C147.18 34.1524 147.467 34.2001 147.733 34.3071C148 34.4141 148.24 34.5778 148.437 34.7869C148.813 35.1968 149.002 35.7827 149.002 36.5374V37.0583H145.96C145.988 37.3453 146.12 37.6121 146.331 37.8081C146.548 38.0007 146.831 38.1019 147.12 38.0903C147.341 38.1007 147.561 38.0577 147.762 37.9649C147.963 37.8721 148.138 37.7323 148.273 37.5574L148.9 38.259C148.701 38.5355 148.432 38.7543 148.121 38.8932C147.78 39.0479 147.41 39.1253 147.036 39.1199ZM146.891 35.1968C146.776 35.1926 146.661 35.2132 146.554 35.2573C146.448 35.3014 146.352 35.3679 146.273 35.4524C146.1 35.662 145.995 35.9194 145.972 36.1902H147.747V36.0865C147.756 35.8462 147.674 35.6115 147.518 35.4283C147.436 35.3469 147.338 35.2836 147.23 35.2425C147.122 35.2014 147.006 35.1833 146.891 35.1895V35.1968Z" fill="white"/>
<path d="M157.084 39.0307H155.763V32.6047H157.086L157.084 39.0307Z" fill="white"/>
<path d="M161.445 36.7664V39.0305H160.121V32.6046H162.63C163.069 32.5958 163.504 32.6864 163.903 32.8698C164.252 33.0323 164.546 33.2939 164.747 33.6221C164.948 33.9578 165.051 34.3428 165.044 34.7337C165.057 35.0145 165.005 35.2946 164.893 35.5524C164.781 35.8103 164.612 36.0391 164.398 36.2214C163.967 36.5863 163.369 36.768 162.606 36.7664H161.445ZM161.445 35.6958H162.63C162.917 35.7184 163.203 35.6324 163.43 35.4547C163.525 35.364 163.599 35.2538 163.646 35.1318C163.694 35.0098 163.714 34.8789 163.705 34.7482C163.712 34.6092 163.691 34.4702 163.643 34.3395C163.595 34.2087 163.522 34.0886 163.428 33.9862C163.327 33.8862 163.207 33.8078 163.074 33.756C162.942 33.7042 162.801 33.68 162.659 33.6848H161.453L161.445 35.6958Z" fill="white"/>
</svg>
