<svg width="33" height="20" viewBox="0 0 33 20" fill="none" xmlns="http://www.w3.org/2000/svg">
<path d="M4.37814 8.77944H9.65443C9.71423 8.70951 9.77168 8.642 9.83382 8.57328C10.0472 8.12359 10.2606 7.67389 10.4857 7.23264C10.6476 6.91066 10.8289 6.59939 11.0286 6.30068H3.96777L4.81197 4.69359L5.9282 2.56688H14.0115L15.2449 0.00012207H4.69238L3.54332 2.15094L2.26528 4.54168L0 8.77944H4.37697H4.37814Z" fill="white"/>
<path d="M27.3986 15.6043L26.4208 17.4332H20.5066H19.2685L17.9893 20H20.3659H27.6542L30.2818 15.0835H27.6765L27.3986 15.6043Z" fill="white"/>
<path d="M21.4756 5.48436C21.4756 6.08717 21.8989 6.58027 22.4206 6.58027C22.9424 6.58027 23.3668 6.08958 23.3668 5.48436C23.3668 4.87914 22.9436 4.38965 22.4206 4.38965C21.8977 4.38965 21.4756 4.88035 21.4756 5.48436Z" fill="white"/>
<path d="M21.7025 7.91846L15.2455 10.5937H17.6667L16.1753 13.3847L14.8727 15.8225L14.012 17.4332H5.9276L2.98812 11.932H0.382812L4.69412 19.9988H15.2455L16.1753 18.2591L17.478 15.8225L20.2721 10.5937L21.7025 7.91846Z" fill="white"/>
<path d="M12.6741 8.28624L9.72754 13.8007H12.4114L18.3373 2.56677H25.479L26.7101 0H18.6714H17.1038L15.4341 3.12377L14.8713 4.17748L12.6741 8.28624Z" fill="white"/>
<path d="M33.0002 9.99937L29.0875 2.68006L27.8107 0.289307L26.5526 2.81268L23.5193 8.90226L20.8765 14.2046L23.3118 14.2733L27.8306 5.20341L29.8075 8.90226L30.3949 9.99937H28.4192H27.1799L25.9018 12.5661H26.0543H28.2785H31.721L31.7456 12.5167L33.0002 9.99937Z" fill="white"/>
</svg>
